<svg width="200" height="200" viewBox="0 0 200 200" xmlns="http://www.w3.org/2000/svg">
  <defs>
    <!-- Gradients for realistic bird coloring -->
    <linearGradient id="bodyGradient" x1="0%" y1="0%" x2="100%" y2="100%">
      <stop offset="0%" style="stop-color:#87CEEB;stop-opacity:1" />
      <stop offset="50%" style="stop-color:#4682B4;stop-opacity:1" />
      <stop offset="100%" style="stop-color:#2F4F4F;stop-opacity:1" />
    </linearGradient>
    
    <linearGradient id="wingGradient" x1="0%" y1="0%" x2="100%" y2="100%">
      <stop offset="0%" style="stop-color:#708090;stop-opacity:1" />
      <stop offset="100%" style="stop-color:#2F4F4F;stop-opacity:1" />
    </linearGradient>
    
    <linearGradient id="beakGradient" x1="0%" y1="0%" x2="100%" y2="100%">
      <stop offset="0%" style="stop-color:#FFD700;stop-opacity:1" />
      <stop offset="100%" style="stop-color:#FFA500;stop-opacity:1" />
    </linearGradient>

    <!-- Shadow filter -->
    <filter id="dropShadow" x="-20%" y="-20%" width="140%" height="140%">
      <feDropShadow dx="2" dy="4" stdDeviation="3" flood-color="rgba(0,0,0,0.3)"/>
    </filter>
  </defs>

  <!-- Bird body (main oval shape) -->
  <ellipse cx="100" cy="120" rx="45" ry="35" fill="url(#bodyGradient)" filter="url(#dropShadow)"/>
  
  <!-- Bird head -->
  <circle cx="85" cy="85" r="28" fill="url(#bodyGradient)" filter="url(#dropShadow)"/>
  
  <!-- Beak -->
  <polygon points="60,85 45,90 60,95" fill="url(#beakGradient)" filter="url(#dropShadow)"/>
  
  <!-- Eye -->
  <circle cx="80" cy="80" r="6" fill="#ffffff"/>
  <circle cx="82" cy="78" r="4" fill="#000000"/>
  <circle cx="83" cy="77" r="1.5" fill="#ffffff"/>
  
  <!-- Wing -->
  <ellipse cx="115" cy="115" rx="25" ry="20" fill="url(#wingGradient)" transform="rotate(15 115 115)" filter="url(#dropShadow)"/>
  
  <!-- Wing details (feather lines) -->
  <g stroke="#2F4F4F" stroke-width="1.5" fill="none" opacity="0.7">
    <path d="M105 105 Q120 110 125 125"/>
    <path d="M110 110 Q125 115 130 130"/>
    <path d="M115 115 Q130 120 135 135"/>
  </g>
  
  <!-- Tail feathers -->
  <g fill="url(#wingGradient)" filter="url(#dropShadow)">
    <ellipse cx="140" cy="135" rx="8" ry="15" transform="rotate(25 140 135)"/>
    <ellipse cx="145" cy="140" rx="6" ry="12" transform="rotate(35 145 140)"/>
    <ellipse cx="148" cy="145" rx="4" ry="10" transform="rotate(45 148 145)"/>
  </g>
  
  <!-- Legs -->
  <g stroke="url(#beakGradient)" stroke-width="2" fill="none" stroke-linecap="round">
    <line x1="90" y1="150" x2="85" y2="165"/>
    <line x1="110" y1="150" x2="115" y2="165"/>
    
    <!-- Feet -->
    <g stroke-width="1.5">
      <line x1="85" y1="165" x2="80" y2="170"/>
      <line x1="85" y1="165" x2="85" y2="170"/>
      <line x1="85" y1="165" x2="90" y2="170"/>
      
      <line x1="115" y1="165" x2="110" y2="170"/>
      <line x1="115" y1="165" x2="115" y2="170"/>
      <line x1="115" y1="165" x2="120" y2="170"/>
    </g>
  </g>
  
  <!-- Subtle highlights for 3D effect -->
  <ellipse cx="95" cy="110" rx="15" ry="10" fill="rgba(255,255,255,0.2)" transform="rotate(-20 95 110)"/>
  <ellipse cx="75" cy="75" rx="8" ry="6" fill="rgba(255,255,255,0.3)" transform="rotate(-15 75 75)"/>
</svg>
